<?xml version="1.0" standalone="no"?>
<!DOCTYPE svg PUBLIC "-//W3C//DTD SVG 20010904//EN"
 "http://www.w3.org/TR/2001/REC-SVG-20010904/DTD/svg10.dtd">
<svg version="1.0" xmlns="http://www.w3.org/2000/svg"
 width="668.000000pt" height="700.000000pt" viewBox="0 0 668.000000 700.000000"
 preserveAspectRatio="xMidYMid meet">

<g transform="translate(0.000000,700.000000) scale(0.100000,-0.100000)"
fill="#000000" stroke="none">
<path d="M3320 6016 c0 -462 2 -526 15 -526 13 0 15 62 13 522 -2 406 -6 522
-15 526 -10 3 -13 -106 -13 -522z"/>
<path d="M2172 6288 c7 -32 368 -931 378 -942 5 -4 13 -6 18 -2 14 9 -369 966
-387 966 -9 0 -12 -8 -9 -22z"/>
<path d="M4332 5816 c-111 -262 -202 -480 -202 -486 0 -5 6 -10 13 -10 12 0
408 915 411 949 0 8 -4 16 -10 18 -6 2 -98 -203 -212 -471z"/>
<path d="M2840 5983 c0 -5 21 -124 47 -267 31 -170 52 -260 61 -263 24 -10 29
-47 -73 505 -3 19 -12 32 -20 32 -8 0 -15 -3 -15 -7z"/>
<path d="M3812 5933 c-50 -232 -92 -477 -84 -485 6 -6 12 -6 17 1 6 11 105
500 105 521 0 6 -6 10 -14 10 -9 0 -18 -18 -24 -47z"/>
<path d="M1130 5624 c0 -13 723 -744 736 -744 8 0 14 6 14 13 0 16 -721 737
-738 737 -6 0 -12 -3 -12 -6z"/>
<path d="M5141 5266 c-287 -287 -362 -368 -357 -382 6 -15 79 54 376 351 204
204 370 376 370 382 0 7 -6 13 -13 13 -6 0 -176 -164 -376 -364z"/>
<path d="M1882 5583 c7 -27 286 -443 298 -443 5 0 11 3 13 8 6 10 -285 444
-302 450 -10 3 -12 -1 -9 -15z"/>
<path d="M4728 5498 c-210 -303 -248 -362 -238 -372 13 -13 5 -24 175 227 99
147 144 222 137 229 -6 6 -31 -21 -74 -84z"/>
<path d="M1180 4891 c0 -17 442 -313 452 -303 12 12 0 21 -241 186 -172 117
-211 139 -211 117z"/>
<path d="M484 4648 c-3 -5 -2 -14 2 -18 14 -14 946 -411 952 -406 20 21 -37
47 -800 372 -88 37 -150 58 -154 52z"/>
<path d="M4182 4289 c-130 -65 -248 -250 -267 -421 -3 -29 -8 -67 -11 -84 l-4
-32 -43 16 c-65 24 -183 22 -234 -5 -91 -49 -137 -151 -114 -251 13 -52 35
-92 45 -81 3 3 -1 21 -11 39 -52 106 -10 235 92 281 47 22 157 24 220 5 l40
-12 11 -85 c21 -156 62 -251 128 -294 36 -24 94 -16 118 15 67 90 -8 235 -173
336 l-61 36 7 62 c11 95 32 164 75 251 73 148 173 232 288 242 85 7 137 -23
177 -101 27 -54 30 -68 33 -190 5 -166 -16 -314 -104 -742 -89 -435 -97 -574
-30 -574 30 0 36 16 36 94 0 35 18 166 41 292 22 126 51 288 63 359 51 289
201 623 337 750 67 62 127 89 191 83 194 -19 208 -320 28 -577 -81 -115 -219
-211 -327 -227 -51 -7 -56 -19 -12 -28 41 -8 92 -62 109 -117 9 -28 16 -118
20 -249 5 -171 9 -211 24 -243 36 -73 120 -89 199 -36 90 59 228 229 382 468
44 69 94 139 111 155 16 17 52 63 79 101 27 39 82 103 123 143 51 50 71 77 64
84 -15 15 -42 -3 -113 -80 -73 -79 -159 -201 -159 -225 0 -10 -4 -17 -8 -17
-5 0 -46 -57 -93 -127 -244 -369 -415 -547 -489 -510 -34 17 -46 69 -54 237
-11 235 -45 333 -136 399 -45 32 -44 35 15 45 81 15 200 82 274 156 152 151
219 393 153 543 -57 129 -219 162 -350 73 -93 -64 -204 -234 -287 -441 -16
-38 -31 -73 -34 -77 -4 -4 -5 58 -3 137 6 210 -20 328 -86 399 -38 40 -81 56
-155 56 -51 0 -76 -6 -125 -31z m-126 -652 c62 -56 104 -134 104 -192 0 -127
-131 -109 -190 27 -22 52 -49 176 -50 231 l0 28 42 -23 c23 -13 65 -45 94 -71z"/>
<path d="M3747 4304 c-3 -4 -32 -13 -64 -21 -44 -12 -162 -17 -498 -23 -449
-8 -511 -14 -623 -54 -62 -22 -117 -65 -142 -109 -30 -52 -25 -156 12 -245 28
-68 128 -232 141 -232 4 0 -6 21 -23 46 -58 83 -122 231 -127 294 -11 113 18
170 106 215 85 43 178 56 427 62 l231 5 -23 -70 c-13 -38 -35 -154 -49 -258
-15 -104 -28 -203 -31 -220 -4 -31 -7 -33 -97 -55 -93 -24 -224 -31 -262 -16
-11 5 -9 1 5 -7 35 -22 122 -20 240 5 55 12 102 20 105 17 8 -8 -35 -260 -65
-386 -67 -277 -166 -439 -310 -510 -77 -37 -172 -42 -235 -12 -104 50 -160
168 -158 330 1 52 7 117 15 145 14 54 7 50 143 73 187 31 277 118 186 179 -91
61 -246 -9 -310 -140 -12 -26 -25 -47 -27 -47 -3 0 -40 -7 -82 -16 -166 -34
-296 -125 -351 -246 -36 -78 -46 -128 -27 -128 8 0 17 16 21 38 30 169 173
291 388 331 l49 9 -6 -32 c-15 -76 -18 -230 -6 -284 25 -113 83 -192 168 -228
59 -25 192 -16 264 18 201 94 330 350 408 817 11 62 21 115 22 117 2 1 40 7
85 14 93 12 142 7 193 -22 l35 -20 -18 20 c-36 40 -144 50 -270 25 -27 -6 -28
-5 -22 33 3 22 17 125 31 229 13 105 31 214 40 243 l15 52 144 0 c79 0 178 5
221 11 81 11 154 35 154 50 0 10 -14 12 -23 3z m-1123 -858 c43 -18 55 -50 29
-78 -37 -41 -111 -66 -275 -91 -37 -6 -37 18 1 70 68 94 164 133 245 99z"/>
<path d="M782 3928 c5 -14 504 -120 527 -112 36 12 -23 30 -250 75 -262 53
-283 56 -277 37z"/>
<path d="M237 3433 c-4 -3 -7 -10 -7 -15 0 -4 237 -8 526 -8 416 0 525 3 522
13 -4 9 -118 13 -520 15 -283 1 -518 -1 -521 -5z"/>
<path d="M1021 3004 c-245 -47 -251 -49 -251 -64 0 -15 5 -15 283 37 176 33
257 52 257 60 0 20 -44 15 -289 -33z"/>
<path d="M926 2469 c-258 -104 -472 -191 -475 -194 -2 -3 0 -10 5 -15 7 -7
172 55 489 183 430 173 527 218 468 217 -10 -1 -229 -86 -487 -191z"/>
<path d="M1385 2134 c-121 -81 -222 -148 -224 -151 -3 -2 0 -8 6 -14 8 -8 76
33 237 140 208 139 248 171 213 171 -6 0 -111 -66 -232 -146z"/>
<path d="M4777 1966 c-7 -18 738 -762 747 -747 7 11 -690 733 -726 752 -11 6
-18 4 -21 -5z"/>
<path d="M1495 1600 c-303 -303 -367 -372 -356 -382 11 -11 79 54 382 362 203
206 369 378 369 383 0 27 -65 -33 -395 -363z"/>
<path d="M2010 1508 c-83 -123 -152 -227 -153 -232 -1 -4 3 -10 10 -13 10 -4
303 414 311 444 2 6 -1 14 -6 17 -6 3 -78 -94 -162 -216z"/>
<path d="M4467 1704 c-3 -3 63 -109 146 -235 135 -203 177 -255 177 -218 0 17
-294 459 -306 459 -6 0 -13 -3 -17 -6z"/>
<path d="M2475 1443 c-142 -327 -365 -860 -365 -871 0 -58 65 83 335 723 94
223 94 226 79 232 -6 2 -28 -35 -49 -84z"/>
<path d="M4090 1500 c0 -6 86 -227 191 -491 123 -307 196 -479 205 -479 8 0
14 6 13 13 0 6 -87 225 -192 486 -166 411 -217 521 -217 471z"/>
<path d="M2916 1388 c-3 -7 -28 -128 -55 -268 -34 -166 -48 -257 -41 -264 5
-5 13 -7 16 -3 5 5 97 453 106 521 3 22 -20 34 -26 14z"/>
<path d="M3700 1384 c0 -33 93 -519 101 -528 24 -27 18 50 -21 263 -24 130
-47 246 -51 259 -10 26 -29 30 -29 6z"/>
<path d="M3320 835 c0 -460 2 -525 15 -525 13 0 15 65 15 525 0 460 -2 525
-15 525 -13 0 -15 -65 -15 -525z"/>
</g>
</svg>
